# xmcd CD database file
# Copyright (C) 1995-1998 Ti Kan
#
# Track frame offsets:
#	150
#	18129
#	38053
#	49254
#	68173
#	85791
#	98090
#	111834
#	135257
#	152929
#	168591
#	182689
#	198099
#	218574
#
# Disc length: 3189 seconds
#
# Revision: 1
# Processed by: cddbd v1.4b41PL1 Copyright (c) Steve Scherf et al.
# Submitted via: CDex 1.30Release
#
DISCID=ae0c730e
DTITLE=Sammy Blue - Everythang and Mo'
DYEAR=2000
DGENRE=Blues
TTITLE0=If I Knew Then
TTITLE1=I Miss You Baby
TTITLE2=Dancin' In The Moonlight
TTITLE3=Everthang and Mo'
TTITLE4=Day Job
TTITLE5=I've Been Hopin'
TTITLE6=Spice In My Life
TTITLE7=Riverside
TTITLE8=I Got To Have My Way
TTITLE9=32 20 Blues
TTITLE10=Vitamin P
TTITLE11=Disposable Love
TTITLE12=Doin' What You Do Best
TTITLE13=Everythang and Mo' (Club Remix)
EXTD=YEAR: 2000 ID3G:   0
EXTT0=
EXTT1=
EXTT2=
EXTT3=
EXTT4=
EXTT5=
EXTT6=
EXTT7=
EXTT8=
EXTT9=
EXTT10=
EXTT11=
EXTT12=
EXTT13=
PLAYORDER=
